<svg width="80" height="80" viewBox="0 0 80 80" xmlns="http://www.w3.org/2000/svg"><title>wd-gallery</title><defs><linearGradient x1="100%" y1="100%" x2="13.848%" y2="18.828%" id="wd-gallery-a"><stop stop-color="#FC5854" offset="0%"/><stop stop-color="#B64959" offset="100%"/></linearGradient></defs><g fill="none" fill-rule="evenodd"><circle fill="url(#wd-gallery-a)" cx="40" cy="40" r="40"/><path d="M43.242 33.89a7.2 7.2 0 1 0-4.925 13.532 7.2 7.2 0 0 0 4.925-13.533zm20.504-.2l-5.412-1.97c-.745-.27-1.336-1.14-1.314-1.932l.13-4.708c.02-.79-.57-1.66-1.315-1.93L40.5 17.566c-.745-.27-1.757.015-2.25.635l-2.927 3.69c-.493.62-1.504.906-2.248.635l-5.413-1.97a4.814 4.814 0 0 0-6.152 2.87l-7.388 20.296a4.814 4.814 0 0 0 2.87 6.152L53.074 63.01a4.814 4.814 0 0 0 6.153-2.87l7.387-20.297a4.814 4.814 0 0 0-2.87-6.153zm-27.07 18.242c-6.23-2.267-9.44-9.153-7.173-15.38 2.266-6.228 9.153-9.44 15.38-7.173 6.227 2.265 9.44 9.152 7.172 15.38-2.266 6.227-9.153 9.438-15.38 7.172zm22.702-11.15a1.68 1.68 0 1 1 1.15-3.16 1.68 1.68 0 0 1-1.15 3.16z" fill="#FFF"/></g></svg>