<svg width="80" height="80" viewBox="0 0 80 80" xmlns="http://www.w3.org/2000/svg"><title>wp-gallery</title><defs><linearGradient x1="100%" y1="100%" x2="13.848%" y2="18.828%" id="wp-gallery-a"><stop stop-color="#FC5854" offset="0%"/><stop stop-color="#B64959" offset="100%"/></linearGradient></defs><g fill="none" fill-rule="evenodd"><circle fill="url(#wp-gallery-a)" cx="40" cy="40" r="40"/><path d="M43.242 33.89a7.2 7.2 0 1 0-4.925 13.532 7.2 7.2 0 0 0 4.925-13.533zm20.504-.2l-5.412-1.97c-.745-.27-1.336-1.14-1.314-1.932l.129-4.708c.02-.791-.57-1.66-1.314-1.931l-15.336-5.582c-.744-.27-1.756.015-2.249.635l-2.927 3.69c-.493.62-1.504.906-2.248.635l-5.413-1.97a4.814 4.814 0 0 0-6.152 2.869l-7.388 20.297a4.814 4.814 0 0 0 2.87 6.152L53.074 63.01a4.814 4.814 0 0 0 6.153-2.869l7.387-20.297a4.814 4.814 0 0 0-2.869-6.153zM36.675 51.932c-6.228-2.267-9.439-9.153-7.172-15.381 2.266-6.227 9.153-9.439 15.38-7.172 6.227 2.266 9.439 9.153 7.172 15.38-2.266 6.228-9.153 9.439-15.38 7.173zM59.378 40.78a1.68 1.68 0 1 1 1.15-3.158 1.68 1.68 0 0 1-1.15 3.158z" fill="#FFF"/></g></svg>