<?xml version="1.0" encoding="UTF-8" standalone="no"?>
<svg width="256px" height="256px" viewBox="0 0 256 256" version="1.1" xmlns="http://www.w3.org/2000/svg" xmlns:xlink="http://www.w3.org/1999/xlink" xmlns:sketch="http://www.bohemiancoding.com/sketch/ns">
    <!-- Generator: Sketch 3.5.2 (25235) - http://www.bohemiancoding.com/sketch -->
    <title>icon</title>
    <desc>Created with Sketch.</desc>
    <defs>
        <linearGradient x1="100%" y1="100%" x2="13.8476563%" y2="18.828125%" id="linearGradient-1">
            <stop stop-color="#FC5854" offset="0%"></stop>
            <stop stop-color="#B64959" offset="100%"></stop>
        </linearGradient>
    </defs>
    <g id="Page-1" stroke="none" stroke-width="1" fill="none" fill-rule="evenodd" sketch:type="MSPage">
        <g id="icon" sketch:type="MSArtboardGroup">
            <g id="Oval-1-+-Shape" sketch:type="MSLayerGroup">
                <circle id="Oval-1" fill="url(#linearGradient-1)" sketch:type="MSShapeGroup" cx="128" cy="128" r="128"></circle>
                <path d="M138.373429,108.446321 C126.415127,104.093855 113.193658,110.262723 108.842767,122.216695 C104.490301,134.174998 110.654838,147.394891 122.613141,151.747357 C134.568557,156.098773 147.791337,149.935286 152.143803,137.976983 C156.494694,126.023011 150.328845,112.797737 138.373429,108.446321 L138.373429,108.446321 L138.373429,108.446321 Z M203.988288,107.809521 L186.667874,101.505406 C184.286317,100.63859 182.392448,97.8570192 182.46314,95.3230015 L182.87623,80.2570762 C182.943511,77.7234511 181.052528,74.9429312 178.670971,74.0761154 L129.596464,56.2144554 C127.214907,55.3476395 123.97616,56.2610907 122.401478,58.2477011 L113.033734,70.0543987 C111.456691,72.0385151 108.22083,72.9530169 105.839273,72.086201 L88.5188589,65.7820858 C80.5803356,62.8926996 71.721137,67.0238117 68.8317508,74.962335 L45.1913185,139.913889 C42.3019323,147.852412 46.4330445,156.711611 54.3715678,159.600997 L169.840997,201.628432 C177.77952,204.517818 186.638719,200.386706 189.528105,192.448183 L213.168537,127.496629 C216.057924,119.558106 211.926811,110.698907 203.988288,107.809521 L203.988288,107.809521 L203.988288,107.809521 Z M117.359712,166.181036 C97.4311317,158.927626 87.1556787,136.891846 94.4090887,116.963266 C101.661973,97.0361291 123.698279,86.7592327 143.626859,94.0126427 C163.552552,101.265002 173.830367,123.303276 166.577482,143.230413 C159.324072,163.158993 137.285405,173.433395 117.359712,166.181036 L117.359712,166.181036 L117.359712,166.181036 Z M190.009348,130.497971 C187.220761,129.483008 185.780248,126.398956 186.796261,123.607483 C187.811223,120.818896 190.898162,119.379433 193.686749,120.394396 C196.478222,121.410409 197.914798,124.496297 196.899836,127.284884 C195.883823,130.076357 192.799378,131.513459 190.009348,130.497971 L190.009348,130.497971 L190.009348,130.497971 Z" id="Shape" fill="#FFFFFF" sketch:type="MSShapeGroup"></path>
            </g>
        </g>
    </g>
</svg>